<!-- Generated by IcoMoon.io -->
<svg version="1.1" xmlns="http://www.w3.org/2000/svg" width="1024" height="1024" viewBox="0 0 1024 1024">
<title></title>
<g id="icomoon-ignore">
</g>
<path fill="none" stroke-linejoin="round" stroke-linecap="round" stroke-miterlimit="4" stroke-width="85.3333" stroke="#000" d="M298.667 85.333h426.667c117.821 0 213.333 95.513 213.333 213.333v426.667c0 117.821-95.513 213.333-213.333 213.333h-426.667c-117.821 0-213.333-95.513-213.333-213.333v-426.667c0-117.821 95.513-213.333 213.333-213.333z"></path>
<path fill="none" stroke-linejoin="round" stroke-linecap="round" stroke-miterlimit="4" stroke-width="85.3333" stroke="#000" d="M682.667 485.12c1.175 7.523 1.846 16.2 1.846 25.034 0 94.257-76.41 170.667-170.667 170.667s-170.667-76.41-170.667-170.667c0-94.257 76.41-170.667 170.667-170.667 8.834 0 17.511 0.671 25.983 1.965l-0.949-0.119c74.402 11.339 132.448 69.385 143.667 142.838l0.119 0.949z"></path>
<path fill="none" stroke-linejoin="round" stroke-linecap="round" stroke-miterlimit="4" stroke-width="85.3333" stroke="#000" d="M746.667 277.333h0.427"></path>
</svg>
